<mxfile host="app.diagrams.net" modified="2022-10-21T02:00:56.685Z" agent="5.0 (Windows NT 10.0; Win64; x64) AppleWebKit/537.36 (KHTML, like Gecko) Chrome/106.0.0.0 Safari/537.36" etag="euYSVKHUC6spW6gOIa51" version="20.4.1" type="github" pages="2">
  <diagram id="rBHqKP6vlVbDTjs9O4Pg" name="数据流程">
    <mxGraphModel dx="1896" dy="1075" grid="1" gridSize="10" guides="1" tooltips="1" connect="1" arrows="1" fold="1" page="1" pageScale="1" pageWidth="827" pageHeight="1169" math="0" shadow="0">
      <root>
        <mxCell id="0" />
        <mxCell id="1" parent="0" />
        <mxCell id="VHaA9NsyE-7zCBHBcNp4-1" value="" style="rounded=0;whiteSpace=wrap;html=1;labelBackgroundColor=none;fontFamily=Helvetica;fontColor=default;fillColor=#FFCC99;gradientColor=none;gradientDirection=south;fontSize=16;" vertex="1" parent="1">
          <mxGeometry x="1002" y="90" width="318" height="260" as="geometry" />
        </mxCell>
        <mxCell id="Ii6t7dFbJUdwm51x7zY0-52" style="edgeStyle=orthogonalEdgeStyle;rounded=0;orthogonalLoop=1;jettySize=auto;html=1;exitX=0.5;exitY=1;exitDx=0;exitDy=0;dashed=1;fontFamily=Helvetica;fontColor=default;fontSize=16;" edge="1" parent="1" source="Ii6t7dFbJUdwm51x7zY0-48" target="Ii6t7dFbJUdwm51x7zY0-51">
          <mxGeometry relative="1" as="geometry" />
        </mxCell>
        <mxCell id="Ii6t7dFbJUdwm51x7zY0-48" value="" style="rounded=0;whiteSpace=wrap;html=1;labelBackgroundColor=none;fontFamily=Helvetica;fontColor=default;fillColor=#FFCC99;gradientColor=none;gradientDirection=south;fontSize=16;" vertex="1" parent="1">
          <mxGeometry x="982" y="110" width="318" height="260" as="geometry" />
        </mxCell>
        <mxCell id="Ii6t7dFbJUdwm51x7zY0-13" value="" style="edgeStyle=orthogonalEdgeStyle;rounded=0;orthogonalLoop=1;jettySize=auto;html=1;entryX=0;entryY=0.5;entryDx=0;entryDy=0;fontSize=16;" edge="1" parent="1" source="Ii6t7dFbJUdwm51x7zY0-2" target="Ii6t7dFbJUdwm51x7zY0-36">
          <mxGeometry relative="1" as="geometry" />
        </mxCell>
        <mxCell id="Ii6t7dFbJUdwm51x7zY0-2" value="Source" style="rounded=1;whiteSpace=wrap;html=1;fillColor=#D5E8D4;fontSize=16;" vertex="1" parent="1">
          <mxGeometry x="184" y="270" width="120" height="60" as="geometry" />
        </mxCell>
        <mxCell id="Ii6t7dFbJUdwm51x7zY0-6" style="edgeStyle=orthogonalEdgeStyle;rounded=0;orthogonalLoop=1;jettySize=auto;html=1;exitX=1;exitY=0.5;exitDx=0;exitDy=0;exitPerimeter=0;entryX=0;entryY=0.5;entryDx=0;entryDy=0;fontSize=16;" edge="1" parent="1" source="Ii6t7dFbJUdwm51x7zY0-3" target="Ii6t7dFbJUdwm51x7zY0-2">
          <mxGeometry relative="1" as="geometry" />
        </mxCell>
        <mxCell id="Ii6t7dFbJUdwm51x7zY0-3" value="DB" style="shape=cylinder3;whiteSpace=wrap;html=1;boundedLbl=1;backgroundOutline=1;size=15;fontSize=16;" vertex="1" parent="1">
          <mxGeometry x="23" y="80" width="60" height="80" as="geometry" />
        </mxCell>
        <mxCell id="Ii6t7dFbJUdwm51x7zY0-7" style="edgeStyle=orthogonalEdgeStyle;rounded=0;orthogonalLoop=1;jettySize=auto;html=1;exitX=1;exitY=0.5;exitDx=0;exitDy=0;exitPerimeter=0;fontSize=16;" edge="1" parent="1" source="Ii6t7dFbJUdwm51x7zY0-4" target="Ii6t7dFbJUdwm51x7zY0-2">
          <mxGeometry relative="1" as="geometry" />
        </mxCell>
        <mxCell id="Ii6t7dFbJUdwm51x7zY0-4" value="File" style="shape=cylinder3;whiteSpace=wrap;html=1;boundedLbl=1;backgroundOutline=1;size=15;fontSize=16;" vertex="1" parent="1">
          <mxGeometry x="23" y="200" width="60" height="80" as="geometry" />
        </mxCell>
        <mxCell id="Ii6t7dFbJUdwm51x7zY0-8" style="edgeStyle=orthogonalEdgeStyle;rounded=0;orthogonalLoop=1;jettySize=auto;html=1;exitX=1;exitY=0.5;exitDx=0;exitDy=0;exitPerimeter=0;entryX=0;entryY=0.5;entryDx=0;entryDy=0;fillColor=#d5e8d4;strokeColor=#82b366;fontSize=16;" edge="1" parent="1" source="Ii6t7dFbJUdwm51x7zY0-5" target="Ii6t7dFbJUdwm51x7zY0-2">
          <mxGeometry relative="1" as="geometry">
            <mxPoint x="223" y="240" as="targetPoint" />
            <Array as="points">
              <mxPoint x="134" y="360" />
              <mxPoint x="134" y="300" />
            </Array>
          </mxGeometry>
        </mxCell>
        <mxCell id="Ii6t7dFbJUdwm51x7zY0-5" value="Kafka" style="shape=cylinder3;whiteSpace=wrap;html=1;boundedLbl=1;backgroundOutline=1;size=15;fillColor=default;strokeColor=default;gradientColor=none;gradientDirection=south;fontSize=16;" vertex="1" parent="1">
          <mxGeometry x="23" y="320" width="60" height="80" as="geometry" />
        </mxCell>
        <mxCell id="Ii6t7dFbJUdwm51x7zY0-10" style="edgeStyle=orthogonalEdgeStyle;rounded=0;orthogonalLoop=1;jettySize=auto;html=1;exitX=0.875;exitY=0.5;exitDx=0;exitDy=0;exitPerimeter=0;entryX=0;entryY=0.5;entryDx=0;entryDy=0;fontSize=16;" edge="1" parent="1" source="Ii6t7dFbJUdwm51x7zY0-9" target="Ii6t7dFbJUdwm51x7zY0-2">
          <mxGeometry relative="1" as="geometry" />
        </mxCell>
        <mxCell id="Ii6t7dFbJUdwm51x7zY0-9" value="web" style="ellipse;shape=cloud;whiteSpace=wrap;html=1;fillColor=#D4E1F5;strokeColor=#6c8ebf;fontSize=16;" vertex="1" parent="1">
          <mxGeometry x="23" y="440" width="60" height="80" as="geometry" />
        </mxCell>
        <mxCell id="Ii6t7dFbJUdwm51x7zY0-15" value="" style="edgeStyle=orthogonalEdgeStyle;rounded=0;orthogonalLoop=1;jettySize=auto;html=1;fontSize=16;" edge="1" parent="1" source="Ii6t7dFbJUdwm51x7zY0-12" target="Ii6t7dFbJUdwm51x7zY0-14">
          <mxGeometry relative="1" as="geometry" />
        </mxCell>
        <mxCell id="Ii6t7dFbJUdwm51x7zY0-12" value="Sink" style="whiteSpace=wrap;html=1;rounded=1;fillColor=#D5E8D4;fontSize=16;" vertex="1" parent="1">
          <mxGeometry x="504" y="270" width="120" height="60" as="geometry" />
        </mxCell>
        <mxCell id="Ii6t7dFbJUdwm51x7zY0-20" style="edgeStyle=orthogonalEdgeStyle;rounded=0;orthogonalLoop=1;jettySize=auto;html=1;exitX=1;exitY=0.5;exitDx=0;exitDy=0;entryX=0;entryY=0.5;entryDx=0;entryDy=0;entryPerimeter=0;fontSize=16;" edge="1" parent="1" source="Ii6t7dFbJUdwm51x7zY0-14" target="Ii6t7dFbJUdwm51x7zY0-16">
          <mxGeometry relative="1" as="geometry" />
        </mxCell>
        <mxCell id="Ii6t7dFbJUdwm51x7zY0-21" style="edgeStyle=orthogonalEdgeStyle;rounded=0;orthogonalLoop=1;jettySize=auto;html=1;exitX=1;exitY=0.5;exitDx=0;exitDy=0;fontSize=16;" edge="1" parent="1" source="Ii6t7dFbJUdwm51x7zY0-14" target="Ii6t7dFbJUdwm51x7zY0-17">
          <mxGeometry relative="1" as="geometry" />
        </mxCell>
        <mxCell id="Ii6t7dFbJUdwm51x7zY0-22" style="edgeStyle=orthogonalEdgeStyle;rounded=0;orthogonalLoop=1;jettySize=auto;html=1;exitX=1;exitY=0.5;exitDx=0;exitDy=0;entryX=0;entryY=0.5;entryDx=0;entryDy=0;entryPerimeter=0;fontSize=16;" edge="1" parent="1" source="Ii6t7dFbJUdwm51x7zY0-14" target="Ii6t7dFbJUdwm51x7zY0-18">
          <mxGeometry relative="1" as="geometry" />
        </mxCell>
        <mxCell id="Ii6t7dFbJUdwm51x7zY0-14" value="Store" style="whiteSpace=wrap;html=1;rounded=1;fillColor=#D5E8D4;fontSize=16;" vertex="1" parent="1">
          <mxGeometry x="664" y="270" width="120" height="60" as="geometry" />
        </mxCell>
        <mxCell id="Ii6t7dFbJUdwm51x7zY0-27" style="edgeStyle=orthogonalEdgeStyle;rounded=0;orthogonalLoop=1;jettySize=auto;html=1;exitX=1;exitY=0.5;exitDx=0;exitDy=0;exitPerimeter=0;fontFamily=Helvetica;entryX=0;entryY=0.5;entryDx=0;entryDy=0;fontSize=16;" edge="1" parent="1" source="Ii6t7dFbJUdwm51x7zY0-16" target="Ii6t7dFbJUdwm51x7zY0-24">
          <mxGeometry relative="1" as="geometry">
            <mxPoint x="1244" y="180" as="targetPoint" />
          </mxGeometry>
        </mxCell>
        <mxCell id="Ii6t7dFbJUdwm51x7zY0-16" value="DB" style="shape=cylinder3;whiteSpace=wrap;html=1;boundedLbl=1;backgroundOutline=1;size=15;fillColor=#FFFFCC;fontSize=16;" vertex="1" parent="1">
          <mxGeometry x="865" y="160" width="60" height="80" as="geometry" />
        </mxCell>
        <mxCell id="Ii6t7dFbJUdwm51x7zY0-26" style="edgeStyle=orthogonalEdgeStyle;rounded=0;orthogonalLoop=1;jettySize=auto;html=1;exitX=1;exitY=0.5;exitDx=0;exitDy=0;exitPerimeter=0;fontFamily=Helvetica;fontSize=16;" edge="1" parent="1" source="Ii6t7dFbJUdwm51x7zY0-17" target="Ii6t7dFbJUdwm51x7zY0-24">
          <mxGeometry relative="1" as="geometry" />
        </mxCell>
        <mxCell id="Ii6t7dFbJUdwm51x7zY0-17" value="File" style="shape=cylinder3;whiteSpace=wrap;html=1;boundedLbl=1;backgroundOutline=1;size=15;fillColor=#FFFFCC;fontSize=16;" vertex="1" parent="1">
          <mxGeometry x="865" y="260" width="60" height="80" as="geometry" />
        </mxCell>
        <mxCell id="Ii6t7dFbJUdwm51x7zY0-25" style="edgeStyle=orthogonalEdgeStyle;rounded=0;orthogonalLoop=1;jettySize=auto;html=1;exitX=1;exitY=0.5;exitDx=0;exitDy=0;exitPerimeter=0;entryX=0;entryY=0.5;entryDx=0;entryDy=0;fontSize=16;" edge="1" parent="1" source="Ii6t7dFbJUdwm51x7zY0-18" target="Ii6t7dFbJUdwm51x7zY0-24">
          <mxGeometry relative="1" as="geometry" />
        </mxCell>
        <mxCell id="Ii6t7dFbJUdwm51x7zY0-18" value="Kafka" style="shape=cylinder3;whiteSpace=wrap;html=1;boundedLbl=1;backgroundOutline=1;size=15;fillColor=#FFFFCC;strokeColor=default;gradientColor=none;gradientDirection=south;fontSize=16;" vertex="1" parent="1">
          <mxGeometry x="865" y="360" width="60" height="80" as="geometry" />
        </mxCell>
        <mxCell id="Ii6t7dFbJUdwm51x7zY0-29" style="edgeStyle=orthogonalEdgeStyle;rounded=0;orthogonalLoop=1;jettySize=auto;html=1;exitX=1;exitY=0.5;exitDx=0;exitDy=0;fontFamily=Helvetica;fontSize=16;" edge="1" parent="1" source="Ii6t7dFbJUdwm51x7zY0-24" target="Ii6t7dFbJUdwm51x7zY0-28">
          <mxGeometry relative="1" as="geometry" />
        </mxCell>
        <mxCell id="Ii6t7dFbJUdwm51x7zY0-24" value="&lt;pre style=&quot;font-size: 16px;&quot;&gt;&lt;font face=&quot;Helvetica&quot; style=&quot;font-size: 16px;&quot;&gt;Puller&lt;/font&gt;&lt;/pre&gt;" style="whiteSpace=wrap;html=1;rounded=1;fillColor=#D5E8D4;fontColor=default;labelBackgroundColor=none;fontSize=16;" vertex="1" parent="1">
          <mxGeometry x="1002" y="270" width="120" height="60" as="geometry" />
        </mxCell>
        <mxCell id="Ii6t7dFbJUdwm51x7zY0-31" style="edgeStyle=orthogonalEdgeStyle;rounded=0;orthogonalLoop=1;jettySize=auto;html=1;exitX=1;exitY=0.5;exitDx=0;exitDy=0;entryX=0.036;entryY=0.5;entryDx=0;entryDy=0;entryPerimeter=0;fontFamily=Helvetica;fontSize=16;" edge="1" parent="1" source="Ii6t7dFbJUdwm51x7zY0-28" target="Ii6t7dFbJUdwm51x7zY0-30">
          <mxGeometry relative="1" as="geometry" />
        </mxCell>
        <mxCell id="Ii6t7dFbJUdwm51x7zY0-28" value="&lt;pre style=&quot;font-size: 16px;&quot;&gt;&lt;font face=&quot;Helvetica&quot; style=&quot;font-size: 16px;&quot;&gt;Pusher&lt;/font&gt;&lt;/pre&gt;" style="whiteSpace=wrap;html=1;rounded=1;fillColor=#D5E8D4;fontColor=default;labelBackgroundColor=none;fontSize=16;" vertex="1" parent="1">
          <mxGeometry x="1160" y="270" width="120" height="60" as="geometry" />
        </mxCell>
        <mxCell id="Ii6t7dFbJUdwm51x7zY0-30" value="web callback" style="ellipse;shape=cloud;whiteSpace=wrap;html=1;fillColor=#C3ABD0;fontSize=16;" vertex="1" parent="1">
          <mxGeometry x="1350" y="260" width="60" height="80" as="geometry" />
        </mxCell>
        <mxCell id="Ii6t7dFbJUdwm51x7zY0-33" value="DB" style="shape=cylinder3;whiteSpace=wrap;html=1;boundedLbl=1;backgroundOutline=1;size=15;fillColor=#D4E1F5;fontSize=16;" vertex="1" parent="1">
          <mxGeometry x="23" y="80" width="60" height="80" as="geometry" />
        </mxCell>
        <mxCell id="Ii6t7dFbJUdwm51x7zY0-34" value="File" style="shape=cylinder3;whiteSpace=wrap;html=1;boundedLbl=1;backgroundOutline=1;size=15;fillColor=#D4E1F5;fontSize=16;" vertex="1" parent="1">
          <mxGeometry x="23" y="200" width="60" height="80" as="geometry" />
        </mxCell>
        <mxCell id="Ii6t7dFbJUdwm51x7zY0-35" value="Kafka" style="shape=cylinder3;whiteSpace=wrap;html=1;boundedLbl=1;backgroundOutline=1;size=15;fillColor=#D4E1F5;strokeColor=default;gradientColor=none;gradientDirection=south;fontSize=16;" vertex="1" parent="1">
          <mxGeometry x="23" y="320" width="60" height="80" as="geometry" />
        </mxCell>
        <mxCell id="Ii6t7dFbJUdwm51x7zY0-37" style="edgeStyle=orthogonalEdgeStyle;rounded=0;orthogonalLoop=1;jettySize=auto;html=1;exitX=1;exitY=0.5;exitDx=0;exitDy=0;entryX=0;entryY=0.5;entryDx=0;entryDy=0;fontFamily=Helvetica;fontColor=default;fontSize=16;" edge="1" parent="1" source="Ii6t7dFbJUdwm51x7zY0-36" target="Ii6t7dFbJUdwm51x7zY0-12">
          <mxGeometry relative="1" as="geometry" />
        </mxCell>
        <mxCell id="Ii6t7dFbJUdwm51x7zY0-36" value="Filter" style="rounded=1;whiteSpace=wrap;html=1;fillColor=#D5E8D4;fontSize=16;" vertex="1" parent="1">
          <mxGeometry x="344" y="270" width="120" height="60" as="geometry" />
        </mxCell>
        <mxCell id="Ii6t7dFbJUdwm51x7zY0-38" value="" style="strokeWidth=2;html=1;shape=mxgraph.flowchart.annotation_2;align=left;labelPosition=right;pointerEvents=1;labelBackgroundColor=none;fontFamily=Helvetica;fontColor=default;fillColor=#C3ABD0;gradientColor=none;gradientDirection=south;rotation=-90;fontSize=16;" vertex="1" parent="1">
          <mxGeometry x="49" y="505" width="60" height="120" as="geometry" />
        </mxCell>
        <mxCell id="Ii6t7dFbJUdwm51x7zY0-39" value="&lt;h1 style=&quot;font-size: 16px;&quot;&gt;&lt;font style=&quot;font-size: 16px;&quot;&gt;原始数据源：&lt;/font&gt;&lt;/h1&gt;&lt;h1 style=&quot;font-size: 16px;&quot;&gt;&lt;font style=&quot;font-size: 16px;&quot;&gt;未按租户进行区分&lt;/font&gt;&lt;/h1&gt;" style="text;html=1;strokeColor=none;fillColor=none;spacing=5;spacingTop=-20;whiteSpace=wrap;overflow=hidden;rounded=0;labelBackgroundColor=none;fontFamily=Helvetica;fontColor=default;fontSize=16;" vertex="1" parent="1">
          <mxGeometry x="1.5" y="600" width="155" height="60" as="geometry" />
        </mxCell>
        <mxCell id="Ii6t7dFbJUdwm51x7zY0-40" value="" style="strokeWidth=2;html=1;shape=mxgraph.flowchart.annotation_2;align=left;labelPosition=right;pointerEvents=1;labelBackgroundColor=none;fontFamily=Helvetica;fontColor=default;fillColor=#C3ABD0;gradientColor=none;gradientDirection=south;rotation=-90;fontSize=16;" vertex="1" parent="1">
          <mxGeometry x="858.5" y="427.5" width="70" height="135" as="geometry" />
        </mxCell>
        <mxCell id="Ii6t7dFbJUdwm51x7zY0-41" value="&lt;h1 style=&quot;font-size: 16px;&quot;&gt;加工后的数据源：&lt;/h1&gt;&lt;h1 style=&quot;font-size: 16px;&quot;&gt;按租户进行区分&lt;/h1&gt;" style="text;html=1;strokeColor=none;fillColor=none;spacing=5;spacingTop=-20;whiteSpace=wrap;overflow=hidden;rounded=0;labelBackgroundColor=none;fontFamily=Helvetica;fontColor=default;fontSize=16;" vertex="1" parent="1">
          <mxGeometry x="824.5" y="530" width="138" height="60" as="geometry" />
        </mxCell>
        <mxCell id="Ii6t7dFbJUdwm51x7zY0-46" style="edgeStyle=orthogonalEdgeStyle;rounded=0;orthogonalLoop=1;jettySize=auto;html=1;exitX=0.5;exitY=1;exitDx=0;exitDy=0;fontFamily=Helvetica;fontColor=default;dashed=1;fontSize=16;" edge="1" parent="1" source="Ii6t7dFbJUdwm51x7zY0-45" target="Ii6t7dFbJUdwm51x7zY0-24">
          <mxGeometry relative="1" as="geometry" />
        </mxCell>
        <mxCell id="Ii6t7dFbJUdwm51x7zY0-45" value="调度器" style="ellipse;whiteSpace=wrap;html=1;labelBackgroundColor=none;fontFamily=Helvetica;fontColor=default;fillColor=#CCE5FF;gradientColor=none;gradientDirection=south;fontSize=16;" vertex="1" parent="1">
          <mxGeometry x="1002" y="120" width="120" height="80" as="geometry" />
        </mxCell>
        <mxCell id="Ii6t7dFbJUdwm51x7zY0-51" value="&lt;h1 style=&quot;font-size: 16px;&quot;&gt;通过redis记录各自的租户清单&lt;/h1&gt;&lt;h1 style=&quot;font-size: 16px;&quot;&gt;拉取不同的租户数据进行推送&lt;/h1&gt;" style="text;html=1;strokeColor=none;fillColor=none;spacing=5;spacingTop=-20;whiteSpace=wrap;overflow=hidden;rounded=0;labelBackgroundColor=none;fontFamily=Helvetica;fontColor=default;fontSize=16;" vertex="1" parent="1">
          <mxGeometry x="1024.87" y="505" width="232.25" height="55" as="geometry" />
        </mxCell>
        <mxCell id="VHaA9NsyE-7zCBHBcNp4-3" style="edgeStyle=orthogonalEdgeStyle;rounded=0;orthogonalLoop=1;jettySize=auto;html=1;exitX=0;exitY=0.5;exitDx=0;exitDy=0;exitPerimeter=0;entryX=0.5;entryY=0;entryDx=0;entryDy=0;dashed=1;fontFamily=Helvetica;fontColor=default;fontSize=16;" edge="1" parent="1" source="VHaA9NsyE-7zCBHBcNp4-2" target="VHaA9NsyE-7zCBHBcNp4-1">
          <mxGeometry relative="1" as="geometry" />
        </mxCell>
        <mxCell id="VHaA9NsyE-7zCBHBcNp4-4" style="edgeStyle=orthogonalEdgeStyle;rounded=0;orthogonalLoop=1;jettySize=auto;html=1;exitX=0;exitY=0.5;exitDx=0;exitDy=0;exitPerimeter=0;entryX=0.5;entryY=0;entryDx=0;entryDy=0;dashed=1;fontFamily=Helvetica;fontColor=default;fontSize=16;" edge="1" parent="1" source="VHaA9NsyE-7zCBHBcNp4-2" target="Ii6t7dFbJUdwm51x7zY0-48">
          <mxGeometry relative="1" as="geometry" />
        </mxCell>
        <mxCell id="VHaA9NsyE-7zCBHBcNp4-2" value="redis" style="shape=cylinder3;whiteSpace=wrap;html=1;boundedLbl=1;backgroundOutline=1;size=15;labelBackgroundColor=none;fontFamily=Helvetica;fontColor=default;fillColor=#FFCC99;gradientColor=none;gradientDirection=south;fontSize=16;" vertex="1" parent="1">
          <mxGeometry x="1350" width="60" height="80" as="geometry" />
        </mxCell>
      </root>
    </mxGraphModel>
  </diagram>
  <diagram id="ucdp7CWETa6N9cNdXdbg" name="流水线">
    <mxGraphModel dx="1422" dy="806" grid="1" gridSize="10" guides="1" tooltips="1" connect="1" arrows="1" fold="1" page="1" pageScale="1" pageWidth="827" pageHeight="1169" math="0" shadow="0">
      <root>
        <mxCell id="0" />
        <mxCell id="1" parent="0" />
        <mxCell id="GyXHZyZ_pUMt8ARnQ6bl-3" style="edgeStyle=orthogonalEdgeStyle;rounded=0;orthogonalLoop=1;jettySize=auto;html=1;exitX=1;exitY=0.5;exitDx=0;exitDy=0;entryX=0;entryY=0.5;entryDx=0;entryDy=0;dashed=1;fontFamily=Helvetica;fontColor=default;fontSize=16;" edge="1" parent="1" source="orpJzT5T39K07BI6od4H-1" target="orpJzT5T39K07BI6od4H-4">
          <mxGeometry relative="1" as="geometry" />
        </mxCell>
        <mxCell id="orpJzT5T39K07BI6od4H-1" value="Source" style="rounded=1;whiteSpace=wrap;html=1;fillColor=#D5E8D4;fontSize=16;" vertex="1" parent="1">
          <mxGeometry y="10" width="120" height="60" as="geometry" />
        </mxCell>
        <mxCell id="GyXHZyZ_pUMt8ARnQ6bl-5" style="edgeStyle=orthogonalEdgeStyle;rounded=0;orthogonalLoop=1;jettySize=auto;html=1;exitX=1;exitY=0.5;exitDx=0;exitDy=0;entryX=0;entryY=0.5;entryDx=0;entryDy=0;dashed=1;fontFamily=Helvetica;fontColor=default;fontSize=16;" edge="1" parent="1" source="orpJzT5T39K07BI6od4H-2" target="orpJzT5T39K07BI6od4H-3">
          <mxGeometry relative="1" as="geometry" />
        </mxCell>
        <mxCell id="orpJzT5T39K07BI6od4H-2" value="Sink" style="whiteSpace=wrap;html=1;rounded=1;fillColor=#D5E8D4;fontSize=16;" vertex="1" parent="1">
          <mxGeometry x="320" y="10" width="120" height="60" as="geometry" />
        </mxCell>
        <mxCell id="GyXHZyZ_pUMt8ARnQ6bl-6" style="edgeStyle=orthogonalEdgeStyle;rounded=0;orthogonalLoop=1;jettySize=auto;html=1;exitX=1;exitY=0.5;exitDx=0;exitDy=0;entryX=0;entryY=0.5;entryDx=0;entryDy=0;dashed=1;fontFamily=Helvetica;fontColor=default;fontSize=16;" edge="1" parent="1" source="orpJzT5T39K07BI6od4H-3" target="GyXHZyZ_pUMt8ARnQ6bl-1">
          <mxGeometry relative="1" as="geometry" />
        </mxCell>
        <mxCell id="orpJzT5T39K07BI6od4H-3" value="Store" style="whiteSpace=wrap;html=1;rounded=1;fillColor=#D5E8D4;fontSize=16;" vertex="1" parent="1">
          <mxGeometry x="480" y="10" width="120" height="60" as="geometry" />
        </mxCell>
        <mxCell id="GyXHZyZ_pUMt8ARnQ6bl-4" style="edgeStyle=orthogonalEdgeStyle;rounded=0;orthogonalLoop=1;jettySize=auto;html=1;exitX=1;exitY=0.5;exitDx=0;exitDy=0;dashed=1;fontFamily=Helvetica;fontColor=default;fontSize=16;" edge="1" parent="1" source="orpJzT5T39K07BI6od4H-4" target="orpJzT5T39K07BI6od4H-2">
          <mxGeometry relative="1" as="geometry" />
        </mxCell>
        <mxCell id="orpJzT5T39K07BI6od4H-4" value="Filter" style="rounded=1;whiteSpace=wrap;html=1;fillColor=#D5E8D4;fontSize=16;" vertex="1" parent="1">
          <mxGeometry x="160" y="10" width="120" height="60" as="geometry" />
        </mxCell>
        <mxCell id="GyXHZyZ_pUMt8ARnQ6bl-7" style="edgeStyle=orthogonalEdgeStyle;rounded=0;orthogonalLoop=1;jettySize=auto;html=1;exitX=1;exitY=0.5;exitDx=0;exitDy=0;entryX=0;entryY=0.5;entryDx=0;entryDy=0;dashed=1;fontFamily=Helvetica;fontColor=default;fontSize=16;" edge="1" parent="1" source="GyXHZyZ_pUMt8ARnQ6bl-1" target="GyXHZyZ_pUMt8ARnQ6bl-2">
          <mxGeometry relative="1" as="geometry" />
        </mxCell>
        <mxCell id="GyXHZyZ_pUMt8ARnQ6bl-1" value="&lt;pre style=&quot;font-size: 16px;&quot;&gt;&lt;font face=&quot;Helvetica&quot; style=&quot;font-size: 16px;&quot;&gt;Puller&lt;/font&gt;&lt;/pre&gt;" style="whiteSpace=wrap;html=1;rounded=1;fillColor=#D5E8D4;fontColor=default;labelBackgroundColor=none;fontSize=16;" vertex="1" parent="1">
          <mxGeometry x="640" y="10" width="120" height="60" as="geometry" />
        </mxCell>
        <mxCell id="GyXHZyZ_pUMt8ARnQ6bl-2" value="&lt;pre style=&quot;font-size: 16px;&quot;&gt;&lt;font face=&quot;Helvetica&quot; style=&quot;font-size: 16px;&quot;&gt;Pusher&lt;/font&gt;&lt;/pre&gt;" style="whiteSpace=wrap;html=1;rounded=1;fillColor=#D5E8D4;fontColor=default;labelBackgroundColor=none;fontSize=16;" vertex="1" parent="1">
          <mxGeometry x="800" y="10" width="120" height="60" as="geometry" />
        </mxCell>
        <mxCell id="qbM4nyodar5Qnm3z3tOm-1" value="" style="strokeWidth=2;html=1;shape=mxgraph.flowchart.annotation_2;align=left;labelPosition=right;pointerEvents=1;labelBackgroundColor=none;fontFamily=Helvetica;fontColor=default;fillColor=#FFCC99;gradientColor=none;gradientDirection=south;rotation=-90;fontSize=16;" vertex="1" parent="1">
          <mxGeometry x="435" y="-325" width="50" height="910" as="geometry" />
        </mxCell>
        <mxCell id="qbM4nyodar5Qnm3z3tOm-2" value="&lt;h1 style=&quot;font-size: 16px;&quot;&gt;默认流水线，全部采用默认组件&lt;/h1&gt;" style="text;html=1;strokeColor=none;fillColor=none;spacing=5;spacingTop=-20;whiteSpace=wrap;overflow=hidden;rounded=0;labelBackgroundColor=none;fontFamily=Helvetica;fontColor=default;fontSize=16;" vertex="1" parent="1">
          <mxGeometry x="338.75" y="160" width="242.5" height="20" as="geometry" />
        </mxCell>
        <mxCell id="S9dUBTERABPa7MMW77Ue-1" style="edgeStyle=orthogonalEdgeStyle;rounded=0;orthogonalLoop=1;jettySize=auto;html=1;exitX=1;exitY=0.5;exitDx=0;exitDy=0;entryX=0;entryY=0.5;entryDx=0;entryDy=0;dashed=1;fontFamily=Helvetica;fontColor=default;fontSize=16;" edge="1" parent="1" source="S9dUBTERABPa7MMW77Ue-2" target="S9dUBTERABPa7MMW77Ue-8">
          <mxGeometry relative="1" as="geometry" />
        </mxCell>
        <mxCell id="S9dUBTERABPa7MMW77Ue-2" value="Source" style="rounded=1;whiteSpace=wrap;html=1;fillColor=#FFFF66;fontSize=16;" vertex="1" parent="1">
          <mxGeometry y="275" width="120" height="60" as="geometry" />
        </mxCell>
        <mxCell id="S9dUBTERABPa7MMW77Ue-3" style="edgeStyle=orthogonalEdgeStyle;rounded=0;orthogonalLoop=1;jettySize=auto;html=1;exitX=1;exitY=0.5;exitDx=0;exitDy=0;entryX=0;entryY=0.5;entryDx=0;entryDy=0;dashed=1;fontFamily=Helvetica;fontColor=default;fontSize=16;" edge="1" parent="1" source="S9dUBTERABPa7MMW77Ue-4" target="S9dUBTERABPa7MMW77Ue-6">
          <mxGeometry relative="1" as="geometry" />
        </mxCell>
        <mxCell id="S9dUBTERABPa7MMW77Ue-4" value="Sink" style="whiteSpace=wrap;html=1;rounded=1;fillColor=#FFFF66;fontSize=16;" vertex="1" parent="1">
          <mxGeometry x="320" y="275" width="120" height="60" as="geometry" />
        </mxCell>
        <mxCell id="S9dUBTERABPa7MMW77Ue-5" style="edgeStyle=orthogonalEdgeStyle;rounded=0;orthogonalLoop=1;jettySize=auto;html=1;exitX=1;exitY=0.5;exitDx=0;exitDy=0;entryX=0;entryY=0.5;entryDx=0;entryDy=0;dashed=1;fontFamily=Helvetica;fontColor=default;fontSize=16;" edge="1" parent="1" source="S9dUBTERABPa7MMW77Ue-6" target="S9dUBTERABPa7MMW77Ue-10">
          <mxGeometry relative="1" as="geometry" />
        </mxCell>
        <mxCell id="S9dUBTERABPa7MMW77Ue-6" value="Store" style="whiteSpace=wrap;html=1;rounded=1;fillColor=#D5E8D4;fontSize=16;" vertex="1" parent="1">
          <mxGeometry x="480" y="275" width="120" height="60" as="geometry" />
        </mxCell>
        <mxCell id="S9dUBTERABPa7MMW77Ue-7" style="edgeStyle=orthogonalEdgeStyle;rounded=0;orthogonalLoop=1;jettySize=auto;html=1;exitX=1;exitY=0.5;exitDx=0;exitDy=0;dashed=1;fontFamily=Helvetica;fontColor=default;fontSize=16;" edge="1" parent="1" source="S9dUBTERABPa7MMW77Ue-8" target="S9dUBTERABPa7MMW77Ue-4">
          <mxGeometry relative="1" as="geometry" />
        </mxCell>
        <mxCell id="S9dUBTERABPa7MMW77Ue-8" value="Filter" style="rounded=1;whiteSpace=wrap;html=1;fillColor=#D5E8D4;fontSize=16;" vertex="1" parent="1">
          <mxGeometry x="160" y="275" width="120" height="60" as="geometry" />
        </mxCell>
        <mxCell id="S9dUBTERABPa7MMW77Ue-9" style="edgeStyle=orthogonalEdgeStyle;rounded=0;orthogonalLoop=1;jettySize=auto;html=1;exitX=1;exitY=0.5;exitDx=0;exitDy=0;entryX=0;entryY=0.5;entryDx=0;entryDy=0;dashed=1;fontFamily=Helvetica;fontColor=default;fontSize=16;" edge="1" parent="1" source="S9dUBTERABPa7MMW77Ue-10" target="S9dUBTERABPa7MMW77Ue-11">
          <mxGeometry relative="1" as="geometry" />
        </mxCell>
        <mxCell id="S9dUBTERABPa7MMW77Ue-10" value="&lt;pre style=&quot;font-size: 16px;&quot;&gt;&lt;font face=&quot;Helvetica&quot; style=&quot;font-size: 16px;&quot;&gt;Puller&lt;/font&gt;&lt;/pre&gt;" style="whiteSpace=wrap;html=1;rounded=1;fillColor=#D5E8D4;fontColor=default;labelBackgroundColor=none;fontSize=16;" vertex="1" parent="1">
          <mxGeometry x="640" y="275" width="120" height="60" as="geometry" />
        </mxCell>
        <mxCell id="S9dUBTERABPa7MMW77Ue-11" value="&lt;pre style=&quot;font-size: 16px;&quot;&gt;&lt;font face=&quot;Helvetica&quot; style=&quot;font-size: 16px;&quot;&gt;Pusher&lt;/font&gt;&lt;/pre&gt;" style="whiteSpace=wrap;html=1;rounded=1;fillColor=#FFFF66;fontColor=default;labelBackgroundColor=none;fontSize=16;" vertex="1" parent="1">
          <mxGeometry x="800" y="275" width="120" height="60" as="geometry" />
        </mxCell>
        <mxCell id="S9dUBTERABPa7MMW77Ue-12" value="" style="strokeWidth=2;html=1;shape=mxgraph.flowchart.annotation_2;align=left;labelPosition=right;pointerEvents=1;labelBackgroundColor=none;fontFamily=Helvetica;fontColor=default;fillColor=#FFCC99;gradientColor=none;gradientDirection=south;rotation=-90;fontSize=16;" vertex="1" parent="1">
          <mxGeometry x="435" y="-60" width="50" height="910" as="geometry" />
        </mxCell>
        <mxCell id="S9dUBTERABPa7MMW77Ue-13" value="&lt;h1 style=&quot;font-size: 16px;&quot;&gt;租户A的自定义流水线，黄色为自定义组件&lt;/h1&gt;" style="text;html=1;strokeColor=none;fillColor=none;spacing=5;spacingTop=-20;whiteSpace=wrap;overflow=hidden;rounded=0;labelBackgroundColor=none;fontFamily=Helvetica;fontColor=default;fontSize=16;" vertex="1" parent="1">
          <mxGeometry x="302.19" y="425" width="315.62" height="25" as="geometry" />
        </mxCell>
        <mxCell id="B3ryYKxe0ps2ObtatAAW-1" style="edgeStyle=orthogonalEdgeStyle;rounded=0;orthogonalLoop=1;jettySize=auto;html=1;exitX=1;exitY=0.5;exitDx=0;exitDy=0;entryX=0;entryY=0.5;entryDx=0;entryDy=0;dashed=1;fontFamily=Helvetica;fontColor=default;fontSize=16;" edge="1" parent="1" source="B3ryYKxe0ps2ObtatAAW-2" target="B3ryYKxe0ps2ObtatAAW-8">
          <mxGeometry relative="1" as="geometry" />
        </mxCell>
        <mxCell id="B3ryYKxe0ps2ObtatAAW-2" value="Source" style="rounded=1;whiteSpace=wrap;html=1;fillColor=#D5E8D4;fontSize=16;" vertex="1" parent="1">
          <mxGeometry y="525" width="120" height="60" as="geometry" />
        </mxCell>
        <mxCell id="B3ryYKxe0ps2ObtatAAW-3" style="edgeStyle=orthogonalEdgeStyle;rounded=0;orthogonalLoop=1;jettySize=auto;html=1;exitX=1;exitY=0.5;exitDx=0;exitDy=0;entryX=0;entryY=0.5;entryDx=0;entryDy=0;dashed=1;fontFamily=Helvetica;fontColor=default;fontSize=16;" edge="1" parent="1" source="B3ryYKxe0ps2ObtatAAW-4" target="B3ryYKxe0ps2ObtatAAW-6">
          <mxGeometry relative="1" as="geometry" />
        </mxCell>
        <mxCell id="B3ryYKxe0ps2ObtatAAW-4" value="Sink" style="whiteSpace=wrap;html=1;rounded=1;fillColor=#D5E8D4;fontSize=16;" vertex="1" parent="1">
          <mxGeometry x="320" y="525" width="120" height="60" as="geometry" />
        </mxCell>
        <mxCell id="B3ryYKxe0ps2ObtatAAW-5" style="edgeStyle=orthogonalEdgeStyle;rounded=0;orthogonalLoop=1;jettySize=auto;html=1;exitX=1;exitY=0.5;exitDx=0;exitDy=0;entryX=0;entryY=0.5;entryDx=0;entryDy=0;dashed=1;fontFamily=Helvetica;fontColor=default;fontSize=16;" edge="1" parent="1" source="B3ryYKxe0ps2ObtatAAW-6" target="B3ryYKxe0ps2ObtatAAW-10">
          <mxGeometry relative="1" as="geometry" />
        </mxCell>
        <mxCell id="B3ryYKxe0ps2ObtatAAW-6" value="Store" style="whiteSpace=wrap;html=1;rounded=1;fillColor=#D5E8D4;fontSize=16;" vertex="1" parent="1">
          <mxGeometry x="480" y="525" width="120" height="60" as="geometry" />
        </mxCell>
        <mxCell id="B3ryYKxe0ps2ObtatAAW-7" style="edgeStyle=orthogonalEdgeStyle;rounded=0;orthogonalLoop=1;jettySize=auto;html=1;exitX=1;exitY=0.5;exitDx=0;exitDy=0;dashed=1;fontFamily=Helvetica;fontColor=default;fontSize=16;" edge="1" parent="1" source="B3ryYKxe0ps2ObtatAAW-8" target="B3ryYKxe0ps2ObtatAAW-4">
          <mxGeometry relative="1" as="geometry" />
        </mxCell>
        <mxCell id="B3ryYKxe0ps2ObtatAAW-8" value="Filter" style="rounded=1;whiteSpace=wrap;html=1;fillColor=#D5E8D4;fontSize=16;" vertex="1" parent="1">
          <mxGeometry x="160" y="525" width="120" height="60" as="geometry" />
        </mxCell>
        <mxCell id="B3ryYKxe0ps2ObtatAAW-9" style="edgeStyle=orthogonalEdgeStyle;rounded=0;orthogonalLoop=1;jettySize=auto;html=1;exitX=1;exitY=0.5;exitDx=0;exitDy=0;entryX=0;entryY=0.5;entryDx=0;entryDy=0;dashed=1;fontFamily=Helvetica;fontColor=default;fontSize=16;" edge="1" parent="1" source="B3ryYKxe0ps2ObtatAAW-10" target="B3ryYKxe0ps2ObtatAAW-11">
          <mxGeometry relative="1" as="geometry" />
        </mxCell>
        <mxCell id="B3ryYKxe0ps2ObtatAAW-10" value="&lt;pre style=&quot;font-size: 16px;&quot;&gt;&lt;font face=&quot;Helvetica&quot; style=&quot;font-size: 16px;&quot;&gt;Puller&lt;/font&gt;&lt;/pre&gt;" style="whiteSpace=wrap;html=1;rounded=1;fillColor=#FFFF66;fontColor=default;labelBackgroundColor=none;fontSize=16;" vertex="1" parent="1">
          <mxGeometry x="640" y="525" width="120" height="60" as="geometry" />
        </mxCell>
        <mxCell id="B3ryYKxe0ps2ObtatAAW-11" value="&lt;pre style=&quot;font-size: 16px;&quot;&gt;&lt;font face=&quot;Helvetica&quot; style=&quot;font-size: 16px;&quot;&gt;Pusher&lt;/font&gt;&lt;/pre&gt;" style="whiteSpace=wrap;html=1;rounded=1;fillColor=#D5E8D4;fontColor=default;labelBackgroundColor=none;fontSize=16;" vertex="1" parent="1">
          <mxGeometry x="800" y="525" width="120" height="60" as="geometry" />
        </mxCell>
        <mxCell id="B3ryYKxe0ps2ObtatAAW-12" value="" style="strokeWidth=2;html=1;shape=mxgraph.flowchart.annotation_2;align=left;labelPosition=right;pointerEvents=1;labelBackgroundColor=none;fontFamily=Helvetica;fontColor=default;fillColor=#FFCC99;gradientColor=none;gradientDirection=south;rotation=-90;fontSize=16;" vertex="1" parent="1">
          <mxGeometry x="435" y="190" width="50" height="910" as="geometry" />
        </mxCell>
        <mxCell id="B3ryYKxe0ps2ObtatAAW-13" value="&lt;h1 style=&quot;font-size: 16px;&quot;&gt;租户B的自定义流水线，黄色为自定义组件&lt;/h1&gt;" style="text;html=1;strokeColor=none;fillColor=none;spacing=5;spacingTop=-20;whiteSpace=wrap;overflow=hidden;rounded=0;labelBackgroundColor=none;fontFamily=Helvetica;fontColor=default;fontSize=16;" vertex="1" parent="1">
          <mxGeometry x="302.19" y="675" width="315.62" height="25" as="geometry" />
        </mxCell>
      </root>
    </mxGraphModel>
  </diagram>
</mxfile>
